# xmcd
# 
# Track frame offsets:
#     150
#     19574
#     33449
#     49589
# 
# Disc length: 920
# 
# Revision: 0
# Processed by: cddbd v1.5.2PL0 Copyright (c) Steve Scherf et al.
# Submitted via: fre:ac v1.0.17
# 
DISCID=24039604
DTITLE=鹿乃 - ディアブレイブ
DYEAR=2015
DGENRE=
TTITLE0=ディアブレイブ
TTITLE1=ディジーシンドローム
TTITLE2=Toy-toi
TTITLE3=ディアブレイブ -instrumental-
EXTD=
EXTT0=
EXTT1=
EXTT2=
EXTT3=
PLAYORDER=
